<svg width="120" height="23" viewBox="0 0 99 23" fill="none" xmlns="http://www.w3.org/2000/svg">
<rect y="4.58228" width="4.09474" height="23.5034" rx="2.04737" transform="rotate(-39.0974 0 4.58228)" fill="#00A0FF"/>
<g clip-path="url(#clip0)">
<rect x="0.831055" y="2.83423" width="4.09474" height="19.1088" rx="2.04737" fill="#00A0FF"/>
<rect y="4.58228" width="4.09474" height="23.5034" rx="2.04737" transform="rotate(-39.0974 0 4.58228)" fill="#0045BC" fill-opacity="0.7"/>
</g>
<rect x="13.0488" y="2.81885" width="4.09474" height="11.3015" rx="2.04737" fill="#00A0FF"/>
<path d="M38.16 5.8C38.6 5.8 38.9533 5.94667 39.22 6.24C39.5 6.52 39.64 6.88667 39.64 7.34V18.56C39.64 19.0267 39.5 19.4067 39.22 19.7C38.9533 19.98 38.6 20.12 38.16 20.12C37.68 20.12 37.2933 19.9467 37 19.6L30.3 11.02V18.56C30.3 19.0267 30.1667 19.4067 29.9 19.7C29.6467 19.98 29.3 20.12 28.86 20.12C28.42 20.12 28.0667 19.98 27.8 19.7C27.5333 19.4067 27.4 19.0267 27.4 18.56V7.34C27.4 6.88667 27.5333 6.52 27.8 6.24C28.08 5.94667 28.44 5.8 28.88 5.8C29.3733 5.8 29.7533 5.97333 30.02 6.32L36.72 14.84V7.34C36.72 6.88667 36.8533 6.52 37.12 6.24C37.3867 5.94667 37.7333 5.8 38.16 5.8ZM50.3291 17.08C50.5957 17.08 50.8091 17.1867 50.9691 17.4C51.1424 17.6133 51.2291 17.8867 51.2291 18.22C51.2291 18.4467 51.1624 18.66 51.0291 18.86C50.8957 19.0467 50.7091 19.2067 50.4691 19.34C50.0157 19.58 49.4891 19.78 48.8891 19.94C48.2891 20.0867 47.7357 20.16 47.2291 20.16C46.1624 20.16 45.2291 19.9533 44.4291 19.54C43.6424 19.1267 43.0357 18.54 42.6091 17.78C42.1824 17.0067 41.9691 16.1 41.9691 15.06C41.9691 14.06 42.1757 13.1733 42.5891 12.4C43.0024 11.6267 43.5757 11.0267 44.3091 10.6C45.0424 10.16 45.8757 9.94 46.8091 9.94C47.7024 9.94 48.4824 10.14 49.1491 10.54C49.8291 10.9267 50.3557 11.4867 50.7291 12.22C51.1024 12.94 51.2891 13.7867 51.2891 14.76C51.2891 15.0533 51.2157 15.28 51.0691 15.44C50.9357 15.5867 50.7424 15.66 50.4891 15.66H44.8891C44.9824 16.4467 45.2224 17.02 45.6091 17.38C45.9957 17.7267 46.5491 17.9 47.2691 17.9C47.6557 17.9 48.0024 17.8533 48.3091 17.76C48.6157 17.6667 48.9557 17.54 49.3291 17.38C49.5157 17.3 49.6957 17.2333 49.8691 17.18C50.0424 17.1133 50.1957 17.08 50.3291 17.08ZM46.8891 12.02C46.3157 12.02 45.8557 12.2067 45.5091 12.58C45.1624 12.94 44.9557 13.4667 44.8891 14.16H48.7491C48.7091 13.4533 48.5291 12.92 48.2091 12.56C47.9024 12.2 47.4624 12.02 46.8891 12.02ZM66.3678 10.86C66.4878 10.58 66.6545 10.3667 66.8678 10.22C67.0811 10.0733 67.3078 10 67.5478 10C67.9211 10 68.2545 10.1267 68.5478 10.38C68.8411 10.6333 68.9878 10.9467 68.9878 11.32C68.9878 11.48 68.9478 11.66 68.8678 11.86L65.5878 19.22C65.4678 19.5133 65.2745 19.74 65.0078 19.9C64.7411 20.0467 64.4611 20.12 64.1678 20.12C63.8611 20.12 63.5745 20.0467 63.3078 19.9C63.0545 19.74 62.8678 19.5133 62.7478 19.22L60.6078 14.24L58.5478 19.22C58.4278 19.5133 58.2411 19.74 57.9878 19.9C57.7345 20.0467 57.4478 20.12 57.1278 20.12C56.8211 20.12 56.5345 20.0467 56.2678 19.9C56.0011 19.74 55.8078 19.5133 55.6878 19.22L52.4278 11.86C52.3478 11.6733 52.3078 11.4933 52.3078 11.32C52.3078 10.9467 52.4611 10.6333 52.7678 10.38C53.0878 10.1267 53.4478 10 53.8478 10C54.1145 10 54.3545 10.0733 54.5678 10.22C54.7945 10.3667 54.9678 10.58 55.0878 10.86L57.2278 16.24L59.4078 10.9C59.5278 10.62 59.7011 10.4067 59.9278 10.26C60.1678 10.1 60.4278 10.02 60.7078 10.02C60.9878 10.02 61.2478 10.0933 61.4878 10.24C61.7278 10.3867 61.9078 10.6067 62.0278 10.9L64.2478 16.24L66.3678 10.86ZM74.3058 20.16C73.4924 20.16 72.7858 20.0933 72.1858 19.96C71.5858 19.8267 71.0591 19.6133 70.6058 19.32C70.4058 19.2 70.2524 19.04 70.1458 18.84C70.0391 18.64 69.9858 18.4133 69.9858 18.16C69.9858 17.8533 70.0724 17.6 70.2458 17.4C70.4191 17.1867 70.6324 17.08 70.8858 17.08C71.0591 17.08 71.2324 17.1133 71.4058 17.18C71.5791 17.2333 71.7591 17.3 71.9458 17.38C72.3191 17.5533 72.6858 17.6933 73.0458 17.8C73.4058 17.8933 73.8524 17.94 74.3858 17.94C74.8524 17.94 75.2124 17.8667 75.4658 17.72C75.7324 17.5733 75.8658 17.3733 75.8658 17.12C75.8658 16.9333 75.8058 16.7867 75.6858 16.68C75.5791 16.56 75.3724 16.4533 75.0658 16.36C74.7591 16.2667 74.2724 16.1533 73.6058 16.02C72.4191 15.7933 71.5658 15.4533 71.0458 15C70.5258 14.5467 70.2658 13.9133 70.2658 13.1C70.2658 12.5 70.4458 11.96 70.8058 11.48C71.1791 11 71.6858 10.6267 72.3258 10.36C72.9658 10.08 73.6858 9.94 74.4858 9.94C75.0591 9.94 75.6191 10.0133 76.1658 10.16C76.7124 10.3067 77.1991 10.5133 77.6258 10.78C78.0391 11.0333 78.2458 11.4067 78.2458 11.9C78.2458 12.22 78.1591 12.4867 77.9858 12.7C77.8124 12.9133 77.5991 13.02 77.3458 13.02C77.0391 13.02 76.6724 12.9 76.2458 12.66C75.9124 12.4867 75.6058 12.36 75.3258 12.28C75.0591 12.1867 74.7391 12.14 74.3658 12.14C73.9524 12.14 73.6258 12.22 73.3858 12.38C73.1458 12.5267 73.0258 12.7333 73.0258 13C73.0258 13.28 73.1658 13.4933 73.4458 13.64C73.7258 13.7867 74.2658 13.9333 75.0658 14.08C75.9591 14.2533 76.6591 14.4667 77.1658 14.72C77.6724 14.96 78.0391 15.2667 78.2658 15.64C78.4924 16.0133 78.6058 16.4867 78.6058 17.06C78.6058 18.0067 78.2124 18.76 77.4258 19.32C76.6524 19.88 75.6124 20.16 74.3058 20.16ZM85.9442 17.92C86.3442 17.9467 86.6376 18.0467 86.8242 18.22C87.0109 18.3933 87.1042 18.6467 87.1042 18.98C87.1042 19.3667 86.9509 19.66 86.6442 19.86C86.3376 20.06 85.8976 20.14 85.3242 20.1L84.7642 20.06C82.4309 19.8733 81.2642 18.6533 81.2642 16.4V12.44H80.4642C80.0242 12.44 79.6909 12.3467 79.4642 12.16C79.2376 11.96 79.1242 11.68 79.1242 11.32C79.1242 10.9467 79.2376 10.6667 79.4642 10.48C79.6909 10.28 80.0242 10.18 80.4642 10.18H81.2642V8.62C81.2642 8.18 81.3976 7.83333 81.6642 7.58C81.9442 7.32667 82.3176 7.2 82.7842 7.2C83.2509 7.2 83.6176 7.32667 83.8842 7.58C84.1509 7.83333 84.2842 8.18 84.2842 8.62V10.18H85.6842C86.5909 10.18 87.0442 10.56 87.0442 11.32C87.0442 11.68 86.9309 11.96 86.7042 12.16C86.4776 12.3467 86.1376 12.44 85.6842 12.44H84.2842V16.62C84.2842 17.02 84.3776 17.3267 84.5642 17.54C84.7509 17.74 85.0242 17.8533 85.3842 17.88L85.9442 17.92ZM92.8886 9.94C94.3286 9.94 95.3953 10.2933 96.0886 11C96.7819 11.6933 97.1286 12.76 97.1286 14.2V18.72C97.1286 19.16 97.0019 19.5067 96.7486 19.76C96.4953 20 96.1419 20.12 95.6886 20.12C95.2619 20.12 94.9153 19.9933 94.6486 19.74C94.3953 19.4733 94.2686 19.1333 94.2686 18.72V18.58C94.0686 19.0733 93.7353 19.46 93.2686 19.74C92.8019 20.02 92.2553 20.16 91.6286 20.16C90.9619 20.16 90.3553 20.0267 89.8086 19.76C89.2753 19.4933 88.8486 19.12 88.5286 18.64C88.2219 18.16 88.0686 17.6267 88.0686 17.04C88.0686 16.32 88.2486 15.7533 88.6086 15.34C88.9819 14.9267 89.5753 14.6267 90.3886 14.44C91.2019 14.2533 92.3153 14.16 93.7286 14.16H94.2486V13.8C94.2486 13.24 94.1219 12.8333 93.8686 12.58C93.6286 12.3267 93.2219 12.2 92.6486 12.2C92.0753 12.2 91.2486 12.4 90.1686 12.8C89.8619 12.9467 89.6019 13.02 89.3886 13.02C89.0953 13.02 88.8619 12.92 88.6886 12.72C88.5153 12.5067 88.4286 12.2333 88.4286 11.9C88.4286 11.6333 88.4886 11.4133 88.6086 11.24C88.7286 11.0667 88.9219 10.9067 89.1886 10.76C89.6553 10.5067 90.2219 10.3067 90.8886 10.16C91.5686 10.0133 92.2353 9.94 92.8886 9.94ZM92.2886 18.08C92.8753 18.08 93.3486 17.8867 93.7086 17.5C94.0686 17.1 94.2486 16.5867 94.2486 15.96V15.62H93.9086C92.8286 15.62 92.0686 15.7067 91.6286 15.88C91.2019 16.0533 90.9886 16.3667 90.9886 16.82C90.9886 17.1933 91.1086 17.5 91.3486 17.74C91.6019 17.9667 91.9153 18.08 92.2886 18.08Z" fill="#00A0FF"/>
<defs>
<clipPath id="clip0">
<rect x="0.831055" y="2.83423" width="4.09474" height="19.1088" rx="2.04737" fill="white"/>
</clipPath>
</defs>
</svg>
