<svg width="102" height="27" viewBox="0 0 102 27" fill="none" xmlns="http://www.w3.org/2000/svg">
<rect x="0.886719" y="3.10034" width="4.9162" height="28.2185" rx="2.4581" transform="rotate(-39.0974 0.886719 3.10034)" fill="#00A0FF"/>
<g clip-path="url(#clip0)">
<rect x="1.88477" y="1.00146" width="4.9162" height="22.9423" rx="2.4581" fill="#00A0FF"/>
<rect x="0.886719" y="3.10034" width="4.9162" height="28.2185" rx="2.4581" transform="rotate(-39.0974 0.886719 3.10034)" fill="#0045BC" fill-opacity="0.7"/>
</g>
<rect x="16.5527" y="0.983154" width="4.9162" height="13.5687" rx="2.4581" fill="#00A0FF"/>
<path d="M42.16 5.8C42.6 5.8 42.9533 5.94667 43.22 6.24C43.5 6.52 43.64 6.88667 43.64 7.34V18.56C43.64 19.0267 43.5 19.4067 43.22 19.7C42.9533 19.98 42.6 20.12 42.16 20.12C41.68 20.12 41.2933 19.9467 41 19.6L34.3 11.02V18.56C34.3 19.0267 34.1667 19.4067 33.9 19.7C33.6467 19.98 33.3 20.12 32.86 20.12C32.42 20.12 32.0667 19.98 31.8 19.7C31.5333 19.4067 31.4 19.0267 31.4 18.56V7.34C31.4 6.88667 31.5333 6.52 31.8 6.24C32.08 5.94667 32.44 5.8 32.88 5.8C33.3733 5.8 33.7533 5.97333 34.02 6.32L40.72 14.84V7.34C40.72 6.88667 40.8533 6.52 41.12 6.24C41.3867 5.94667 41.7333 5.8 42.16 5.8ZM54.3291 17.08C54.5957 17.08 54.8091 17.1867 54.9691 17.4C55.1424 17.6133 55.2291 17.8867 55.2291 18.22C55.2291 18.4467 55.1624 18.66 55.0291 18.86C54.8957 19.0467 54.7091 19.2067 54.4691 19.34C54.0157 19.58 53.4891 19.78 52.8891 19.94C52.2891 20.0867 51.7357 20.16 51.2291 20.16C50.1624 20.16 49.2291 19.9533 48.4291 19.54C47.6424 19.1267 47.0357 18.54 46.6091 17.78C46.1824 17.0067 45.9691 16.1 45.9691 15.06C45.9691 14.06 46.1757 13.1733 46.5891 12.4C47.0024 11.6267 47.5757 11.0267 48.3091 10.6C49.0424 10.16 49.8757 9.94 50.8091 9.94C51.7024 9.94 52.4824 10.14 53.1491 10.54C53.8291 10.9267 54.3557 11.4867 54.7291 12.22C55.1024 12.94 55.2891 13.7867 55.2891 14.76C55.2891 15.0533 55.2157 15.28 55.0691 15.44C54.9357 15.5867 54.7424 15.66 54.4891 15.66H48.8891C48.9824 16.4467 49.2224 17.02 49.6091 17.38C49.9957 17.7267 50.5491 17.9 51.2691 17.9C51.6557 17.9 52.0024 17.8533 52.3091 17.76C52.6157 17.6667 52.9557 17.54 53.3291 17.38C53.5157 17.3 53.6957 17.2333 53.8691 17.18C54.0424 17.1133 54.1957 17.08 54.3291 17.08ZM50.8891 12.02C50.3157 12.02 49.8557 12.2067 49.5091 12.58C49.1624 12.94 48.9557 13.4667 48.8891 14.16H52.7491C52.7091 13.4533 52.5291 12.92 52.2091 12.56C51.9024 12.2 51.4624 12.02 50.8891 12.02ZM70.3678 10.86C70.4878 10.58 70.6545 10.3667 70.8678 10.22C71.0811 10.0733 71.3078 10 71.5478 10C71.9211 10 72.2545 10.1267 72.5478 10.38C72.8411 10.6333 72.9878 10.9467 72.9878 11.32C72.9878 11.48 72.9478 11.66 72.8678 11.86L69.5878 19.22C69.4678 19.5133 69.2745 19.74 69.0078 19.9C68.7411 20.0467 68.4611 20.12 68.1678 20.12C67.8611 20.12 67.5745 20.0467 67.3078 19.9C67.0545 19.74 66.8678 19.5133 66.7478 19.22L64.6078 14.24L62.5478 19.22C62.4278 19.5133 62.2411 19.74 61.9878 19.9C61.7345 20.0467 61.4478 20.12 61.1278 20.12C60.8211 20.12 60.5345 20.0467 60.2678 19.9C60.0011 19.74 59.8078 19.5133 59.6878 19.22L56.4278 11.86C56.3478 11.6733 56.3078 11.4933 56.3078 11.32C56.3078 10.9467 56.4611 10.6333 56.7678 10.38C57.0878 10.1267 57.4478 10 57.8478 10C58.1145 10 58.3545 10.0733 58.5678 10.22C58.7945 10.3667 58.9678 10.58 59.0878 10.86L61.2278 16.24L63.4078 10.9C63.5278 10.62 63.7011 10.4067 63.9278 10.26C64.1678 10.1 64.4278 10.02 64.7078 10.02C64.9878 10.02 65.2478 10.0933 65.4878 10.24C65.7278 10.3867 65.9078 10.6067 66.0278 10.9L68.2478 16.24L70.3678 10.86ZM78.3058 20.16C77.4924 20.16 76.7858 20.0933 76.1858 19.96C75.5858 19.8267 75.0591 19.6133 74.6058 19.32C74.4058 19.2 74.2524 19.04 74.1458 18.84C74.0391 18.64 73.9858 18.4133 73.9858 18.16C73.9858 17.8533 74.0724 17.6 74.2458 17.4C74.4191 17.1867 74.6324 17.08 74.8858 17.08C75.0591 17.08 75.2324 17.1133 75.4058 17.18C75.5791 17.2333 75.7591 17.3 75.9458 17.38C76.3191 17.5533 76.6858 17.6933 77.0458 17.8C77.4058 17.8933 77.8524 17.94 78.3858 17.94C78.8524 17.94 79.2124 17.8667 79.4658 17.72C79.7324 17.5733 79.8658 17.3733 79.8658 17.12C79.8658 16.9333 79.8058 16.7867 79.6858 16.68C79.5791 16.56 79.3724 16.4533 79.0658 16.36C78.7591 16.2667 78.2724 16.1533 77.6058 16.02C76.4191 15.7933 75.5658 15.4533 75.0458 15C74.5258 14.5467 74.2658 13.9133 74.2658 13.1C74.2658 12.5 74.4458 11.96 74.8058 11.48C75.1791 11 75.6858 10.6267 76.3258 10.36C76.9658 10.08 77.6858 9.94 78.4858 9.94C79.0591 9.94 79.6191 10.0133 80.1658 10.16C80.7124 10.3067 81.1991 10.5133 81.6258 10.78C82.0391 11.0333 82.2458 11.4067 82.2458 11.9C82.2458 12.22 82.1591 12.4867 81.9858 12.7C81.8124 12.9133 81.5991 13.02 81.3458 13.02C81.0391 13.02 80.6724 12.9 80.2458 12.66C79.9124 12.4867 79.6058 12.36 79.3258 12.28C79.0591 12.1867 78.7391 12.14 78.3658 12.14C77.9524 12.14 77.6258 12.22 77.3858 12.38C77.1458 12.5267 77.0258 12.7333 77.0258 13C77.0258 13.28 77.1658 13.4933 77.4458 13.64C77.7258 13.7867 78.2658 13.9333 79.0658 14.08C79.9591 14.2533 80.6591 14.4667 81.1658 14.72C81.6724 14.96 82.0391 15.2667 82.2658 15.64C82.4924 16.0133 82.6058 16.4867 82.6058 17.06C82.6058 18.0067 82.2124 18.76 81.4258 19.32C80.6524 19.88 79.6124 20.16 78.3058 20.16ZM89.9442 17.92C90.3442 17.9467 90.6376 18.0467 90.8242 18.22C91.0109 18.3933 91.1042 18.6467 91.1042 18.98C91.1042 19.3667 90.9509 19.66 90.6442 19.86C90.3376 20.06 89.8976 20.14 89.3242 20.1L88.7642 20.06C86.4309 19.8733 85.2642 18.6533 85.2642 16.4V12.44H84.4642C84.0242 12.44 83.6909 12.3467 83.4642 12.16C83.2376 11.96 83.1242 11.68 83.1242 11.32C83.1242 10.9467 83.2376 10.6667 83.4642 10.48C83.6909 10.28 84.0242 10.18 84.4642 10.18H85.2642V8.62C85.2642 8.18 85.3976 7.83333 85.6642 7.58C85.9442 7.32667 86.3176 7.2 86.7842 7.2C87.2509 7.2 87.6176 7.32667 87.8842 7.58C88.1509 7.83333 88.2842 8.18 88.2842 8.62V10.18H89.6842C90.5909 10.18 91.0442 10.56 91.0442 11.32C91.0442 11.68 90.9309 11.96 90.7042 12.16C90.4776 12.3467 90.1376 12.44 89.6842 12.44H88.2842V16.62C88.2842 17.02 88.3776 17.3267 88.5642 17.54C88.7509 17.74 89.0242 17.8533 89.3842 17.88L89.9442 17.92ZM96.8886 9.94C98.3286 9.94 99.3953 10.2933 100.089 11C100.782 11.6933 101.129 12.76 101.129 14.2V18.72C101.129 19.16 101.002 19.5067 100.749 19.76C100.495 20 100.142 20.12 99.6886 20.12C99.2619 20.12 98.9153 19.9933 98.6486 19.74C98.3953 19.4733 98.2686 19.1333 98.2686 18.72V18.58C98.0686 19.0733 97.7353 19.46 97.2686 19.74C96.8019 20.02 96.2553 20.16 95.6286 20.16C94.9619 20.16 94.3553 20.0267 93.8086 19.76C93.2753 19.4933 92.8486 19.12 92.5286 18.64C92.2219 18.16 92.0686 17.6267 92.0686 17.04C92.0686 16.32 92.2486 15.7533 92.6086 15.34C92.9819 14.9267 93.5753 14.6267 94.3886 14.44C95.2019 14.2533 96.3153 14.16 97.7286 14.16H98.2486V13.8C98.2486 13.24 98.1219 12.8333 97.8686 12.58C97.6286 12.3267 97.2219 12.2 96.6486 12.2C96.0753 12.2 95.2486 12.4 94.1686 12.8C93.8619 12.9467 93.6019 13.02 93.3886 13.02C93.0953 13.02 92.8619 12.92 92.6886 12.72C92.5153 12.5067 92.4286 12.2333 92.4286 11.9C92.4286 11.6333 92.4886 11.4133 92.6086 11.24C92.7286 11.0667 92.9219 10.9067 93.1886 10.76C93.6553 10.5067 94.2219 10.3067 94.8886 10.16C95.5686 10.0133 96.2353 9.94 96.8886 9.94ZM96.2886 18.08C96.8753 18.08 97.3486 17.8867 97.7086 17.5C98.0686 17.1 98.2486 16.5867 98.2486 15.96V15.62H97.9086C96.8286 15.62 96.0686 15.7067 95.6286 15.88C95.2019 16.0533 94.9886 16.3667 94.9886 16.82C94.9886 17.1933 95.1086 17.5 95.3486 17.74C95.6019 17.9667 95.9153 18.08 96.2886 18.08Z" fill="#00A0FF"/>
<defs>
<clipPath id="clip0">
<rect x="1.88477" y="1.00146" width="4.9162" height="22.9423" rx="2.4581" fill="white"/>
</clipPath>
</defs>
</svg>
