<svg xmlns="http://www.w3.org/2000/svg" width="72" height="72" viewBox="0 0 72 72"><defs><linearGradient id="a" x1="0%" x2="99.58%" y1="0%" y2="99.58%"><stop offset="0%" stop-color="#0045BC"/><stop offset="100%" stop-color="#0045BC"/></linearGradient></defs><g fill="none" fill-rule="evenodd"><circle cx="36" cy="36" r="36" fill="url(#a)"/><path fill="#FFF" fill-rule="nonzero" d="M18.6086 18.0048C18.2466 18.0912 17.9911 18.4334 18.0002 18.8236V48.0436C18.0002 51.5202 19.7188 53.4808 21.4069 54.3636C23.095 55.2463 24.7649 55.2079 24.7649 55.2079H48.7087V55.1312C49.0828 55.1759 49.4874 55.2079 49.4874 55.2079C49.4874 55.2079 50.9838 55.2175 52.4803 54.3124C53.9403 53.4296 55.379 51.5618 55.449 48.3251C55.4581 48.3091 55.4672 48.2899 55.4733 48.2739C55.4733 48.2547 55.4733 48.2419 55.4733 48.2227C55.4764 48.1812 55.4764 48.1364 55.4733 48.0948V27.5487C55.4733 27.5391 55.4733 27.5327 55.4733 27.5231C55.4733 27.5231 55.4855 26.5636 55.011 25.5785C54.5365 24.5934 53.4324 23.5315 51.7017 23.5315V23.5059H44.3287V25.1435H48.66C48.5657 25.2842 48.4867 25.4122 48.4167 25.5529C47.9422 26.5284 47.93 27.4975 47.93 27.4975V47.3528C47.927 47.647 48.073 47.9221 48.3163 48.0724C48.5597 48.2195 48.8577 48.2195 49.1011 48.0724C49.3444 47.9221 49.4904 47.647 49.4874 47.3528V27.4975C49.4874 27.4751 49.5178 26.8834 49.8037 26.2949C50.0957 25.6968 50.5063 25.1691 51.7017 25.1691C52.894 25.1691 53.3046 25.7096 53.5997 26.3205C53.8886 26.9218 53.9403 27.5263 53.9403 27.5487H53.916V48.0948C53.916 51.0085 52.8088 52.2367 51.7017 52.9051C50.5945 53.5736 49.4874 53.5704 49.4874 53.5704C49.4874 53.5704 48.1703 53.5512 46.8594 52.8539C45.5484 52.1567 44.2801 50.9317 44.2801 48.0436V18.8236C44.2801 18.3726 43.9303 18.0048 43.5014 18.0048H18.7789C18.7211 17.9984 18.6664 17.9984 18.6086 18.0048ZM19.5576 19.6423H42.7227V48.0436C42.7227 50.7366 43.8086 52.4989 45.0831 53.5704H24.7649C24.7557 53.5704 24.7496 53.5704 24.7405 53.5704C24.7405 53.5704 24.4059 53.5736 23.9132 53.4936C23.6668 53.452 23.3931 53.3849 23.0859 53.2889C22.7787 53.193 22.438 53.0746 22.1125 52.9051C21.9483 52.8188 21.784 52.7292 21.6259 52.6237C20.5126 51.888 19.5576 50.6183 19.5576 48.0436V19.6423ZM22.6722 24.7341C22.2433 24.7981 21.9422 25.2171 22.003 25.668C22.0639 26.119 22.4623 26.4356 22.8912 26.3717H38.2454C38.5253 26.3749 38.7868 26.2213 38.9298 25.9655C39.0697 25.7096 39.0697 25.3962 38.9298 25.1403C38.7868 24.8844 38.5253 24.7309 38.2454 24.7341H22.8912C22.8669 24.7341 22.8425 24.7341 22.8182 24.7341C22.7939 24.7341 22.7695 24.7341 22.7452 24.7341C22.7209 24.7341 22.6965 24.7341 22.6722 24.7341ZM22.6722 28.0092C22.2433 28.0732 21.9422 28.4922 22.003 28.9431C22.0639 29.3941 22.4623 29.7107 22.8912 29.6468H38.2454C38.5253 29.65 38.7868 29.4964 38.9298 29.2406C39.0697 28.9847 39.0697 28.6713 38.9298 28.4154C38.7868 28.1595 38.5253 28.006 38.2454 28.0092H22.8912C22.8669 28.0092 22.8425 28.0092 22.8182 28.0092C22.7939 28.0092 22.7695 28.0092 22.7452 28.0092C22.7209 28.0092 22.6965 28.0092 22.6722 28.0092ZM23.0372 34.5594C22.6083 34.6234 22.3072 35.0424 22.368 35.4933C22.4289 35.9443 22.8273 36.2609 23.2562 36.197H28.5365C28.8163 36.2002 29.0779 36.0466 29.2209 35.7908C29.3608 35.5349 29.3608 35.2215 29.2209 34.9656C29.0779 34.7097 28.8163 34.5562 28.5365 34.5594H23.2562C23.2319 34.5594 23.2075 34.5594 23.1832 34.5594C23.1589 34.5594 23.1345 34.5594 23.1102 34.5594C23.0859 34.5594 23.0615 34.5594 23.0372 34.5594ZM32.0161 34.5594C31.5873 34.6234 31.2861 35.0424 31.347 35.4933C31.4078 35.9443 31.8063 36.2609 32.2351 36.197H38.2454C38.5253 36.2002 38.7868 36.0466 38.9298 35.7908C39.0697 35.5349 39.0697 35.2215 38.9298 34.9656C38.7868 34.7097 38.5253 34.5562 38.2454 34.5594H32.2351C32.2108 34.5594 32.1865 34.5594 32.1621 34.5594C32.1378 34.5594 32.1135 34.5594 32.0891 34.5594C32.0648 34.5594 32.0405 34.5594 32.0161 34.5594ZM23.0372 37.8345C22.6083 37.8985 22.3072 38.3175 22.368 38.7684C22.4289 39.2194 22.8273 39.536 23.2562 39.4721H28.5365C28.8163 39.4753 29.0779 39.3217 29.2209 39.0659C29.3608 38.81 29.3608 38.4966 29.2209 38.2407C29.0779 37.9848 28.8163 37.8313 28.5365 37.8345H23.2562C23.2319 37.8345 23.2075 37.8345 23.1832 37.8345C23.1589 37.8345 23.1345 37.8345 23.1102 37.8345C23.0859 37.8345 23.0615 37.8345 23.0372 37.8345ZM32.0161 37.8345C31.5873 37.8985 31.2861 38.3175 31.347 38.7684C31.4078 39.2194 31.8063 39.536 32.2351 39.4721H38.2454C38.5253 39.4753 38.7868 39.3217 38.9298 39.0659C39.0697 38.81 39.0697 38.4966 38.9298 38.2407C38.7868 37.9848 38.5253 37.8313 38.2454 37.8345H32.2351C32.2108 37.8345 32.1865 37.8345 32.1621 37.8345C32.1378 37.8345 32.1135 37.8345 32.0891 37.8345C32.0648 37.8345 32.0405 37.8345 32.0161 37.8345ZM32.0161 40.9305C31.5873 40.9945 31.2861 41.4135 31.347 41.8644C31.4078 42.3154 31.8063 42.632 32.2351 42.5681H38.2454C38.5253 42.5713 38.7868 42.4177 38.9298 42.1619C39.0697 41.906 39.0697 41.5926 38.9298 41.3367C38.7868 41.0808 38.5253 40.9273 38.2454 40.9305H32.2351C32.1865 40.9241 32.1378 40.9241 32.0891 40.9305C32.0648 40.9305 32.0405 40.9305 32.0161 40.9305ZM23.0372 41.1096C22.6083 41.1736 22.3072 41.5926 22.368 42.0435C22.4289 42.4945 22.8273 42.8111 23.2562 42.7472H28.5365C28.8163 42.7504 29.0779 42.5969 29.2209 42.341C29.3608 42.0851 29.3608 41.7717 29.2209 41.5158C29.0779 41.2599 28.8163 41.1064 28.5365 41.1096H23.2562C23.2319 41.1096 23.2075 41.1096 23.1832 41.1096C23.1589 41.1096 23.1345 41.1096 23.1102 41.1096C23.0859 41.1096 23.0615 41.1096 23.0372 41.1096ZM32.0161 44.2056C31.5873 44.2696 31.2861 44.6886 31.347 45.1395C31.4078 45.5905 31.8063 45.9071 32.2351 45.8432H38.2454C38.5253 45.8464 38.7868 45.6928 38.9298 45.437C39.0697 45.1811 39.0697 44.8677 38.9298 44.6118C38.7868 44.3559 38.5253 44.2024 38.2454 44.2056H32.2351C32.1865 44.1992 32.1378 44.1992 32.0891 44.2056C32.0648 44.2056 32.0405 44.2056 32.0161 44.2056ZM23.0372 44.3847C22.6083 44.4487 22.3072 44.8677 22.368 45.3186C22.4289 45.7696 22.8273 46.0862 23.2562 46.0223H28.5365C28.8163 46.0255 29.0779 45.872 29.2209 45.6161C29.3608 45.3602 29.3608 45.0468 29.2209 44.7909C29.0779 44.535 28.8163 44.3815 28.5365 44.3847H23.2562C23.2319 44.3847 23.2075 44.3847 23.1832 44.3847C23.1589 44.3847 23.1345 44.3847 23.1102 44.3847C23.0859 44.3847 23.0615 44.3847 23.0372 44.3847ZM32.0161 47.276C31.5873 47.34 31.2861 47.759 31.347 48.2099C31.4078 48.6609 31.8063 48.9775 32.2351 48.9136H38.2454C38.5253 48.9168 38.7868 48.7633 38.9298 48.5074C39.0697 48.2515 39.0697 47.9381 38.9298 47.6822C38.7868 47.4263 38.5253 47.2728 38.2454 47.276H32.2351C32.2108 47.276 32.1865 47.276 32.1621 47.276C32.1378 47.276 32.1135 47.276 32.0891 47.276C32.0648 47.276 32.0405 47.276 32.0161 47.276ZM23.0372 47.6598C22.6083 47.7238 22.3072 48.1428 22.368 48.5937C22.4289 49.0447 22.8273 49.3613 23.2562 49.2974H28.5365C28.8163 49.3006 29.0779 49.1471 29.2209 48.8912C29.3608 48.6353 29.3608 48.3219 29.2209 48.066C29.0779 47.8101 28.8163 47.6566 28.5365 47.6598H23.2562C23.2319 47.6598 23.2075 47.6598 23.1832 47.6598C23.1589 47.6598 23.1345 47.6598 23.1102 47.6598C23.0859 47.6598 23.0615 47.6598 23.0372 47.6598Z" /></g></svg>