<svg xmlns="http://www.w3.org/2000/svg" width="74" height="74" viewBox="0 0 74 74" fill="none">
<rect width="74" height="74" rx="37" fill="#0045BC"/>
<path d="M53.014 31.6992V31.6991L53.0033 31.6993C52.7603 31.7045 52.5154 31.6591 52.2756 31.5613L51.9133 31.4135L51.6828 31.7296L45.2101 40.6046L45.0761 40.7883L45.1265 41.01C45.2066 41.3626 45.2413 41.7731 45.2413 42.1992C45.2413 43.4791 44.8598 44.6238 44.2688 45.4364C43.6769 46.2501 42.9043 46.6992 42.1049 46.6992C41.3056 46.6992 40.5329 46.2501 39.9411 45.4364C39.3501 44.6238 38.9686 43.4791 38.9686 42.1992C38.9686 41.7731 39.0033 41.3626 39.0834 41.01L39.1337 40.7887L39.0002 40.6051L34.3639 34.2301L34.129 33.9072L33.7621 34.0648C33.5498 34.156 33.2937 34.1992 33.014 34.1992C32.7343 34.1992 32.4782 34.156 32.266 34.0648L31.8987 33.907L31.6639 34.2306L23.3912 45.6306L23.258 45.814L23.3083 46.035C23.3887 46.3891 23.4231 46.7752 23.4231 47.1992C23.4231 48.4791 23.0416 49.6238 22.4506 50.4364C21.8588 51.2501 21.0861 51.6992 20.2868 51.6992C19.4874 51.6992 18.7147 51.2501 18.1229 50.4364C17.5319 49.6238 17.1504 48.4791 17.1504 47.1992C17.1504 45.9193 17.5319 44.7747 18.1229 43.9621C18.7147 43.1483 19.4874 42.6992 20.2868 42.6992C20.5626 42.6992 20.8016 42.7412 21.0166 42.8336L21.3831 42.9911L21.6181 42.6687L29.909 31.2937L30.0429 31.11L29.9925 30.8884C29.9124 30.5359 29.8777 30.1254 29.8777 29.6992C29.8777 28.4193 30.2592 27.2747 30.8502 26.4621C31.442 25.6483 32.2147 25.1992 33.014 25.1992C33.8134 25.1992 34.586 25.6483 35.1778 26.4621C35.7688 27.2747 36.1504 28.4193 36.1504 29.6992C36.1504 30.1254 36.1157 30.5359 36.0356 30.8884L35.9853 31.1097L36.1188 31.2933L40.7551 37.6683L40.99 37.9913L41.3569 37.8336C41.5691 37.7424 41.8252 37.6992 42.1049 37.6992C42.3846 37.6992 42.6407 37.7424 42.853 37.8336L43.2204 37.9915L43.4552 37.6678L49.9097 28.7678L50.0408 28.587L49.9937 28.3688C49.9125 27.9923 49.8732 27.5997 49.8776 27.2049L49.8777 27.2049V27.1992C49.8777 25.9193 50.2592 24.7747 50.8502 23.9621C51.442 23.1483 52.2147 22.6992 53.014 22.6992C53.8134 22.6992 54.586 23.1483 55.1778 23.9621C55.7688 24.7747 56.1504 25.9193 56.1504 27.1992C56.1504 28.4791 55.7688 29.6238 55.1778 30.4364C54.586 31.2501 53.8134 31.6992 53.014 31.6992Z" fill="white" stroke="#0045BC"/>
</svg>