<svg xmlns="http://www.w3.org/2000/svg" width="74" height="74" viewBox="0 0 74 74" fill="none">
<rect width="74" height="74" rx="37" fill="#0045BC"/>
<path d="M36.9991 56.4728C47.7544 56.4728 56.4728 47.7544 56.4728 36.9991C56.4728 26.2438 47.7544 17.5254 36.9991 17.5254C26.2438 17.5254 17.5254 26.2438 17.5254 36.9991C17.521 40.8511 18.6625 44.6173 20.8048 47.8186C21.0423 48.1721 20.5974 50.4086 19.4728 54.5254C23.5905 53.4008 25.8261 52.9558 26.1795 53.1934C29.3809 55.3356 33.1471 56.4771 36.9991 56.4728V56.4728Z" stroke="white" stroke-width="2.04474" stroke-linejoin="round"/>
<path d="M29.7949 32.9277H46.1333" stroke="white" stroke-width="2.04474" stroke-linecap="round" stroke-linejoin="round"/>
<path d="M34.9008 28.9551L32.0645 45.0442" stroke="white" stroke-width="2.04474" stroke-linecap="round" stroke-linejoin="round"/>
<path d="M41.7172 28.9551L38.8809 45.0442" stroke="white" stroke-width="2.04474" stroke-linecap="round" stroke-linejoin="round"/>
<path d="M27.8496 40.8926H44.188" stroke="white" stroke-width="2.04474" stroke-linecap="round" stroke-linejoin="round"/>
</svg>