<svg xmlns="http://www.w3.org/2000/svg" width="74" height="74" viewBox="0 0 74 74" fill="none">
<rect width="74" height="74" rx="37" fill="#0045BC"/>
<path d="M46.6013 30.6016C46.6013 28.0551 45.5898 25.6129 43.7894 23.8122C41.9889 22.0116 39.5469 21 37.0006 21C34.4544 21 32.0124 22.0116 30.2119 23.8122C28.4115 25.6129 27.4 28.0551 27.4 30.6016C27.4 41.8035 22.5996 45.004 22.5996 45.004H51.4017C51.4017 45.004 46.6013 41.8035 46.6013 30.6016Z" stroke="white" stroke-width="1.60012" stroke-linecap="round" stroke-linejoin="round"/>
<path d="M39.7669 51.4062C39.4855 51.8912 39.0818 52.2938 38.5959 52.5736C38.1101 52.8534 37.5593 53.0007 36.9987 53.0007C36.438 53.0007 35.8872 52.8534 35.4014 52.5736C34.9156 52.2938 34.5118 51.8912 34.2305 51.4062" stroke="white" stroke-width="1.60012" stroke-linecap="round" stroke-linejoin="round"/>
<path d="M20.998 30.6016C20.998 27.081 22.1181 23.7205 24.1983 21" stroke="white" stroke-width="1.60012" stroke-linecap="round" stroke-linejoin="round"/>
<path d="M53.001 30.6016C53.001 27.1391 51.8781 23.77 49.8008 21" stroke="white" stroke-width="1.60012" stroke-linecap="round" stroke-linejoin="round"/>
</svg>